# xmcd
#
# Track frame offsets:
#	150
#	22905
#	42972
#	59087
#	76295
#	94352
#	113852
#	126225
#	143290
#	161645
#
# Disc length: 2419
#
# Revision: 4
# Processed by: cddbd v1.5.1PL0 Copyright (c) Steve Scherf et al.
# Submitted via: CDex 1.50Beta7
# Normalized: r2:DSETVAR1,TDELIM( - );r3:TSWAP
#
DISCID=8009710a
DTITLE=Various Artist - Country Dance Super Hits
DYEAR=1995
DGENRE=Country
TTITLE0=Joe Diffie - Third Rock from the Sun
TTITLE1=Mary Chapin Carpenter - I Feel Lucky
TTITLE2=Patty Loveless - Blame It on Your Heart
TTITLE3=Collin Raye - I Want You Bad (And That Ain't Good)
TTITLE4=Wade Hayes - Old Enough to Know Better
TTITLE5=Rick Trevino - Just Enough Rope
TTITLE6=Ken Mellons - Jukebox Junkie
TTITLE7=Joe Diffie - Honky Tonk Attitude
TTITLE8=Ricky Van Shelton - Wild Man
TTITLE9=Mary Chapin Carpenter - Down at the Twist and Shout
EXTD=YEAR: 1995
EXTT0=
EXTT1=
EXTT2=
EXTT3=
EXTT4=
EXTT5=
EXTT6=
EXTT7=
EXTT8=
EXTT9=
PLAYORDER=
